<?xml version="1.0" encoding="UTF-8"?>
<svg version="1.1" xmlns="http://www.w3.org/2000/svg" width="1024" height="1024">
<path d="M0 0 C337.92 0 675.84 0 1024 0 C1024 337.92 1024 675.84 1024 1024 C686.08 1024 348.16 1024 0 1024 C0 686.08 0 348.16 0 0 Z " fill="#070707" transform="translate(0,0)"/>
<path d="M0 0 C36.63 0 73.26 0 111 0 C111 98.67 111 197.34 111 299 C161.49 299 211.98 299 264 299 C264 330.68 264 362.36 264 395 C176.88 395 89.76 395 0 395 C0 264.65 0 134.3 0 0 Z " fill="#FDFDFD" transform="translate(544,312)"/>
<path d="M0 0 C98.01 0 196.02 0 297 0 C297 29.37 297 58.74 297 89 C264.66 89 232.32 89 199 89 C199 190.31 199 291.62 199 396 C164.68 396 130.36 396 95 396 C95 294.69 95 193.38 95 89 C63.65 89 32.3 89 0 89 C0 59.63 0 30.26 0 0 Z " fill="#FDFDFD" transform="translate(211,312)"/>
</svg>
